PathFileType	4	(X/Y/Z)	Kaydara	
DataRate	CameraRate	NumFrames	NumMarkers	Units	OrigDataRate	OrigDataStartFrame	OrigNumFrames	
60.00	60.00	4	74	mm	60.00	1096	141	
Frame#	Time	Z_lasi			Z_rasi			Z_rpsi			Z_lpsi			Z_fneck			Z_bneck			Z_fhead			Z_rhead			Z_lhead			Z_rshld			Z_relbtop			Z_relbext			Z_relblow			Z_rwrext			Z_rwrtop			Z_rwrlow			Z_lshld			Z_lelbext			Z_lelblow			Z_lelbtop			Z_lwrext			Z_lwrtop			Z_lwrlow			Z_rtopleg			Z_ltopleg			Z_rkneefr			Z_rkneebk			Z_rkneeis			Z_lkneefr			Z_lknssbk			Z_lkneeis			Z_rankfr			Z_rankis			Z_rankbk			Z_lankfr			Z_lankbk			Z_lankis			A_lasi			A_rasi			A_rpsi			A_lpsi			A_fneck			A_bneck			A_fhead			A_rhead			A_lhead			A_rshld			A_relbtop			A_relbext			A_relblow			A_rwrext			A_rwrtop			A_rwrlow			A_lshld			A_lelbext			A_lelblow			A_lelbtop			A_lwrext			A_lwrtop			A_lwrlow			A_rtopleg			A_ltopleg			A_rkneefr			A_rkneebk			A_rkneeis			A_lkneefr			A_lknssbk			A_lkneeis			A_rankfr			A_rankis			A_rankbk			A_lankfr			A_lankbk			A_lankis			
		X1	Y1	Z1	X2	Y2	Z2	X3	Y3	Z3	X4	Y4	Z4	X5	Y5	Z5	X6	Y6	Z6	X7	Y7	Z7	X8	Y8	Z8	X9	Y9	Z9	X10	Y10	Z10	X11	Y11	Z11	X12	Y12	Z12	X13	Y13	Z13	X14	Y14	Z14	X15	Y15	Z15	X16	Y16	Z16	X17	Y17	Z17	X18	Y18	Z18	X19	Y19	Z19	X20	Y20	Z20	X21	Y21	Z21	X22	Y22	Z22	X23	Y23	Z23	X24	Y24	Z24	X25	Y25	Z25	X26	Y26	Z26	X27	Y27	Z27	X28	Y28	Z28	X29	Y29	Z29	X30	Y30	Z30	X31	Y31	Z31	X32	Y32	Z32	X33	Y33	Z33	X34	Y34	Z34	X35	Y35	Z35	X36	Y36	Z36	X37	Y37	Z37	X38	Y38	Z38	X39	Y39	Z39	X40	Y40	Z40	X41	Y41	Z41	X42	Y42	Z42	X43	Y43	Z43	X44	Y44	Z44	X45	Y45	Z45	X46	Y46	Z46	X47	Y47	Z47	X48	Y48	Z48	X49	Y49	Z49	X50	Y50	Z50	X51	Y51	Z51	X52	Y52	Z52	X53	Y53	Z53	X54	Y54	Z54	X55	Y55	Z55	X56	Y56	Z56	X57	Y57	Z57	X58	Y58	Z58	X59	Y59	Z59	X60	Y60	Z60	X61	Y61	Z61	X62	Y62	Z62	X63	Y63	Z63	X64	Y64	Z64	X65	Y65	Z65	X66	Y66	Z66	X67	Y67	Z67	X68	Y68	Z68	X69	Y69	Z69	X70	Y70	Z70	X71	Y71	Z71	X72	Y72	Z72	X73	Y73	Z73	X74	Y74	Z74	

36	18.250	-220.35061	1074.65530	731.11404	-283.66270	1087.18002	533.62659	-114.59308	1113.76915	441.77658	-34.33453	1096.71478	674.76036	-210.48429	1452.76764	634.11953	-95.00368	1503.48740	623.30067	-265.24813	1674.29321	629.30168	-126.99464	1643.32184	538.30830	-107.38518	1641.55823	685.13977	-173.07775	1445.65140	417.11094	-140.00483	1129.60457	320.63309	-112.34414	1110.41374	372.22061	-205.18593	1137.24174	361.58752	-237.86379	901.44241	322.59594	-268.33912	913.22685	355.44128	-241.22940	906.26366	388.71895	-94.02504	1431.07315	806.20216	-62.72930	1113.04527	805.21500	-119.80600	1133.93661	871.26587	-51.00538	1131.32240	873.38982	-195.35545	881.85356	858.03825	-181.41283	872.31689	902.24709	-135.94464	866.81984	890.02518	-166.51943	924.41322	397.95376	-130.69933	890.68474	762.78244	-248.25949	422.56981	421.24313	-176.93098	454.44633	374.41364	-186.16440	427.12032	497.31041	-187.06617	444.43436	704.52042	-81.81845	469.16103	690.34599	-178.91233	443.59375	611.59790	-204.83093	183.02246	384.44988	-182.66773	174.41463	446.69456	-128.28791	175.94166	378.25279	-125.93607	160.40590	683.41125	-69.46737	165.62788	624.22657	-148.88589	173.72992	615.43369	-984.40598	1033.22426	473.60390	-976.82144	1040.32257	632.95925	-1135.71388	1035.92941	650.51903	-1107.88651	1040.29457	468.17486	-1049.20639	1378.53912	565.46791	-1186.46027	1412.76871	549.90505	-989.71336	1587.43774	588.50723	-1144.93912	1551.99326	654.59496	-1127.11220	1561.68381	492.31659	-1125.29671	1348.22037	738.72154	-1049.28261	1066.07506	765.84702	-1110.95032	1044.97963	772.28859	-1067.35695	1053.40210	711.63895	-954.45496	838.82248	725.59097	-919.35043	866.83563	716.84975	-936.71349	878.26447	683.09616	-1076.78909	1351.51291	386.68968	-1054.56360	1039.93675	349.49516	-1011.92459	1061.77841	407.01488	-1007.35001	1054.40460	353.25588	-941.29364	873.79242	480.10368	-924.51385	857.80609	442.87548	-891.33904	882.09610	463.29933	-1076.74423	875.52155	733.10837	-1039.90517	889.99596	396.45374	-1030.37994	452.06947	641.70334	-1138.37761	485.83801	686.11855	-1117.80380	485.79750	568.02509	-1015.69069	464.99374	509.49715	-1100.35378	480.08522	413.99471	-1122.98798	479.17519	538.17814	-1100.43518	165.68007	663.42789	-1133.25615	162.39111	597.45850	-1181.71326	153.27838	666.43822	-1068.39935	166.52935	457.36408	-1129.45831	167.83710	421.80748	-1128.04512	173.04157	511.31123 
37	18.267	-221.02436	1074.98245	729.88838	-284.19861	1087.29103	532.45983	-115.21127	1113.94714	440.49412	-34.94993	1097.17751	673.43842	-210.60873	1453.08075	632.24129	-95.34502	1503.94684	620.57129	-266.53879	1673.40439	627.65297	-129.26265	1643.96423	534.70501	-107.66999	1643.03207	681.27090	-173.84460	1445.55389	415.08667	-141.44737	1129.25217	319.60104	-113.40076	1110.10452	370.99003	-206.30512	1136.62308	360.72113	-237.92543	900.51048	321.23375	-268.79654	912.30827	353.54103	-242.09684	905.54260	386.94103	-94.35278	1431.92352	804.01863	-62.93304	1114.01001	803.53058	-120.49391	1134.69154	869.38324	-51.81471	1132.31491	871.84967	-193.29796	881.52328	856.46996	-179.24339	872.19498	900.68260	-134.09360	867.32605	888.85269	-166.95133	924.59000	396.86882	-130.84043	891.01028	761.57776	-247.78193	422.62840	420.71911	-176.46866	454.45236	373.76480	-185.29840	427.18987	496.54076	-186.49311	444.56577	703.82896	-81.29907	469.21913	689.81148	-178.47107	443.73497	610.83660	-204.64304	183.00095	384.16725	-182.45667	174.42394	446.48098	-128.14272	175.80349	378.02151	-125.54270	160.53633	683.09731	-69.34651	165.54691	624.14146	-148.69211	173.78908	615.26695	-984.29184	1033.29056	473.57449	-976.76376	1040.47714	633.07289	-1135.48325	1035.81863	650.52628	-1107.79541	1040.23399	468.32390	-1049.52614	1378.31589	565.48237	-1186.48972	1413.38379	549.99390	-988.68912	1586.58478	587.95998	-1143.95729	1552.71149	654.37653	-1126.47354	1561.71539	491.95446	-1125.42358	1348.04443	738.80516	-1048.78403	1066.04004	765.61073	-1110.21935	1044.78493	772.47345	-1066.99234	1053.38989	711.44569	-953.09044	839.13780	725.49438	-918.28323	867.37503	716.10573	-936.27823	878.36105	682.58743	-1077.34756	1351.43646	386.67915	-1054.37424	1039.95056	349.51622	-1011.93466	1061.80344	407.20203	-1007.18170	1054.53430	353.39130	-941.68129	873.85208	479.04839	-923.91724	858.05588	442.84817	-890.93521	882.45773	463.45058	-1076.27365	875.46120	732.99667	-1039.67346	890.01129	396.41960	-1030.11879	452.06535	641.70174	-1138.16856	485.85926	686.20613	-1117.55417	485.81398	567.96558	-1015.42953	464.99149	509.48528	-1100.13489	480.11311	413.96759	-1122.81265	479.25262	538.21930	-1100.36575	165.68733	663.44681	-1133.19275	162.41386	597.49920	-1181.63223	153.30760	666.48117	-1068.32703	166.52920	457.35043	-1129.39285	167.87527	421.81320	-1128.01125	173.06095	511.31416 
38	18.283	-221.53954	1075.37445	728.62175	-284.80240	1087.49290	531.26789	-115.89747	1114.05579	439.21383	-35.64841	1097.53654	672.19978	-210.85470	1453.18237	630.22224	-95.39469	1504.61029	617.82284	-268.26620	1672.66190	625.44960	-131.78051	1644.09958	531.24508	-108.49805	1644.30832	677.68959	-174.21263	1445.39169	412.93312	-142.83689	1128.70033	318.51263	-114.61003	1109.62738	369.86588	-207.65898	1136.13922	359.78962	-238.58013	899.86023	319.39568	-269.52250	911.41922	351.76640	-243.18821	904.85855	385.25974	-94.44557	1432.66617	801.73943	-63.19618	1114.74876	801.70113	-121.19811	1135.34088	867.29904	-52.35240	1133.13614	870.02838	-191.31533	880.94345	854.88670	-177.75120	871.99188	899.23538	-132.39099	867.75917	888.09586	-167.44791	924.70673	395.66662	-130.93077	891.25328	760.33783	-247.28209	422.66571	420.23460	-176.00374	454.43638	373.12691	-184.71729	427.29259	495.90096	-185.88833	444.74907	703.09547	-80.83348	469.42181	688.94707	-177.94306	443.85689	609.92962	-204.49228	182.98662	383.94627	-182.19431	174.41017	446.20338	-127.97140	175.66065	377.79442	-124.95664	160.56738	682.63657	-69.08677	165.54516	623.76541	-148.51019	173.85902	615.05566	-984.27444	1033.32260	473.53119	-976.49460	1040.44212	632.86747	-1135.29716	1035.66719	650.52574	-1107.60246	1040.03036	468.67710	-1049.76212	1378.12958	565.46391	-1186.40175	1413.89511	550.27473	-987.66991	1585.92957	587.24663	-1142.92030	1553.43857	654.21844	-1125.94635	1561.65115	491.71543	-1125.55473	1347.84470	738.89946	-1048.71246	1065.98610	765.89134	-1109.86809	1044.65454	772.70508	-1066.91460	1053.32161	711.41747	-951.90460	839.42993	725.40260	-917.38701	867.93823	715.48813	-935.95535	878.63586	682.13203	-1077.88361	1351.36734	386.61503	-1054.37271	1039.87984	349.46346	-1012.01576	1061.84563	407.16854	-1007.21298	1054.59373	353.37536	-941.63902	873.80074	478.61267	-923.43010	858.35732	442.73399	-890.62950	882.78702	463.54218	-1075.86983	875.42465	732.87506	-1039.42520	889.99840	396.35441	-1029.83948	452.06829	641.64566	-1137.85637	485.87406	686.17287	-1117.24258	485.80376	567.95269	-1015.11162	464.97971	509.40811	-1099.86755	480.15507	413.94394	-1122.56851	479.33586	538.26916	-1100.26108	165.67701	663.40378	-1133.13232	162.43769	597.50374	-1181.53725	153.31003	666.45096	-1068.25172	166.52966	457.37209	-1129.31549	167.89633	421.82880	-1127.93015	173.09921	511.30196 
39	18.300	-221.92940	1075.78575	727.25815	-285.34292	1087.70424	529.93160	-116.35964	1114.06288	437.82269	-36.09429	1097.82890	670.81848	-211.36473	1453.20404	628.27614	-95.72207	1505.02396	615.10483	-270.05350	1672.26456	622.89608	-134.06790	1643.68286	527.92114	-109.84797	1645.07019	674.23203	-174.46947	1445.05936	410.71423	-143.93939	1128.11264	317.30877	-115.69620	1109.06021	368.69587	-208.68984	1135.69435	358.61629	-239.37845	899.26964	317.96347	-270.45408	910.81291	350.01450	-244.36171	904.31572	383.87539	-94.30090	1433.30750	799.29718	-63.43820	1115.35667	799.79279	-121.80779	1135.76393	865.20515	-52.79505	1133.83286	868.17085	-189.73629	880.42770	853.17505	-176.48655	871.93481	897.96120	-130.91343	868.19229	887.23412	-168.04573	924.82536	394.55013	-131.17230	891.47415	759.09874	-246.89863	422.68414	419.75410	-175.74108	454.31171	372.58823	-184.36630	427.38354	495.37777	-185.70948	444.97356	702.34169	-80.80571	469.64825	688.21960	-177.58432	443.92639	609.26170	-204.35118	182.93032	383.74382	-182.09133	174.43743	445.98488	-127.77682	175.55462	377.44320	-124.97359	160.83702	682.51442	-68.90706	165.58504	623.46169	-148.36084	173.87175	614.81998	-984.26155	1033.35411	473.48289	-976.51711	1040.48859	632.93209	-1135.16586	1035.54314	650.52361	-1107.58858	1039.95232	468.70510	-1049.85397	1378.01697	565.44571	-1186.19652	1414.20212	550.57781	-986.79443	1585.49606	586.37966	-1141.95999	1553.81317	654.16359	-1125.54321	1561.52039	491.62224	-1125.50507	1347.73788	738.99742	-1048.73871	1065.91820	766.03348	-1109.74800	1044.48593	772.78137	-1066.91742	1053.25562	711.54808	-951.29929	839.86382	725.34157	-916.98471	868.52379	715.14320	-935.67894	878.95287	681.73561	-1078.28362	1351.29333	386.56544	-1054.58435	1039.73099	349.36325	-1012.21718	1061.87172	406.96209	-1007.47437	1054.59473	353.20267	-941.68961	873.94653	477.99335	-923.01453	858.66890	442.58877	-890.37849	883.17421	463.49873	-1075.56503	875.41931	732.83836	-1039.17679	889.98093	396.30062	-1029.53339	452.03915	641.61263	-1137.55234	485.88490	686.14906	-1116.92993	485.81100	567.96032	-1014.86084	464.95220	509.44481	-1099.62036	480.17490	413.94279	-1122.23572	479.38236	538.27198	-1100.17784	165.68480	663.41553	-1133.07152	162.41909	597.49187	-1181.47949	153.43085	666.54427	-1068.18077	166.51056	457.34081	-1129.23920	167.93205	421.83323	-1127.82845	173.14493	511.31252 
